<?xml version="1.0" encoding="utf-8"?>
<!-- Generator: Adobe Illustrator 25.3.1, SVG Export Plug-In . SVG Version: 6.00 Build 0)  -->
<svg version="1.1" id="Layer_1" xmlns="http://www.w3.org/2000/svg" xmlns:xlink="http://www.w3.org/1999/xlink" x="0px" y="0px"
	 viewBox="0 0 300 300" style="enable-background:new 0 0 300 300;" xml:space="preserve">
<g id="Vector_layer">
	<path d="M55,152.6c-2.5-0.1-5.2-0.6-7.4-1.8c-1.6-0.8-3.1-1.9-4.5-3.1c-1.9-1.7-3.7-3.6-5.1-5.8c-0.7-1.1-1.2-2.3-1.6-3.5
		c-0.4-1.1-0.6-2.3-0.8-3.5c-0.5-3.4-0.4-6.8-0.2-10.2c0-1,0.1-2,0.1-3c0-0.7,0.1-1.3,0.1-2c0.1-1.7,0.2-3.3,0.4-5
		c0.2-1.7,0.3-3.5,0.5-5.2c0.2-1.9,0.5-3.9,0.7-5.8c0.2-1.9,0.4-3.8,0.6-5.7c0.1-0.6,0.1-1.1,0.1-1.7c0.1-1.2,0.1-2.4,0.2-3.6
		c0-0.6,0-1.1,0-1.7c0-1.2,0-2.4-0.1-3.6c0-0.6-0.1-1.2-0.1-1.8c-0.1-1.1-0.1-2.1-0.2-3.2c-0.1-0.9-0.2-1.8-0.3-2.7
		c-0.1-0.5-0.1-1.1-0.2-1.6c-0.1-0.6-0.1-1.2-0.2-1.8c0-0.2,0-0.6,0.1-0.8c0.3-0.3,0.9,0,1.1,0.1c0.9,0.4,1.7,1.1,2.5,1.8
		c1.3,1.1,2.5,2.3,3.5,3.6c0.3,0.4,0.6,0.8,0.9,1.3c0.1,0.2,0.2,0.4,0.3,0.5c0.1,0.2,0.2,0.5,0.2,0.8c0,0.2-0.1,0.3-0.3,0.3
		c0,0.2,0,0.4,0,0.6c0,0.3,0,0.5,0,0.8c0,0.4,0,0.9,0.1,1.3c0,0.4,0,0.9,0.1,1.3c0,0.7,0.1,1.4,0.1,2.2c0,1.7,0.1,3.3,0,5
		c0,1.1-0.1,2.3-0.1,3.4c0,0.5-0.1,1.1-0.1,1.6c-0.2,1.6-0.3,3.3-0.6,4.9c-0.6,3.6-1.2,7.3-1.8,10.9c-0.1,0.6-0.2,1.2-0.3,1.9
		c-0.2,1.1-0.3,2.3-0.5,3.4c-0.1,0.5-0.1,1-0.2,1.5c-0.1,1.2-0.2,2.4-0.3,3.5c0,0.5-0.1,0.9-0.1,1.4c0,1-0.1,2-0.1,3
		c0,0.8-0.1,1.5-0.1,2.3c0,1.2,0,2.4,0,3.5c0,1.2,0.2,2.3,0.3,3.5c0.2,1.4,0.6,2.8,1.1,4.2c0.6,0.2,1.2,0.3,1.9,0.4
		c1.1,0.2,2.2,0.2,3.4,0.2c1.2,0,2.4-0.1,3.6-0.3c2.5-0.3,5-0.8,7.4-1.4c2.9-0.7,5.8-1.5,8.7-2.2c3.7-1,7.4-2,11-3
		c1.5-0.4,3-0.8,4.5-1.2c1.5-0.4,3-0.8,4.5-1.1c1.7-0.4,3.3-0.8,5-1.1c1.8-0.4,3.5-0.7,5.3-1.1c1.6-0.3,3.1-0.6,4.7-0.9
		c1.5-0.3,3-0.6,4.6-0.9c1.2-0.2,2.4-0.5,3.6-0.7c0.3,0,0.7,0.1,0.9,0.3c0.5,0.2,0.9,0.5,1.4,0.9c1.6,1.1,3.1,2.5,4.4,4
		c1,1,1.9,2.1,2.6,3.3c0.2,0.4,0.4,0.8,0.6,1.2c0.1,0.2,0.2,0.8-0.3,0.8c-1.9-0.2-3.9-0.4-5.9-0.4c-0.5,0-1-0.1-1.4-0.1
		c-0.5,0-1,0-1.4,0c-0.5,0-0.9,0-1.4,0c-0.4,0-0.8,0-1.2,0.1c-0.8,0-1.6,0.1-2.4,0.2c-1.1,0.1-2.2,0.3-3.3,0.4
		c-0.7,0.1-1.3,0.2-2,0.3c-1,0.2-1.9,0.4-2.9,0.5c-0.2,0-0.4,0.1-0.6,0.1l-1.6,0.4c-1.1,0.3-2.1,0.5-3.2,0.8c-0.5,0.1-1,0.3-1.4,0.4
		c-1.2,0.3-2.3,0.7-3.5,1c-3,0.8-5.9,1.8-8.8,2.6c-2,0.6-4.1,1.2-6.1,1.8c-3.6,1.1-7.3,2-11,2.6c-2.2,0.4-4.4,0.6-6.6,0.6
		C55.7,152.6,55.4,152.6,55,152.6z"/>
	<path d="M44.8,128.8c-0.2-0.1-0.5-0.2-0.7-0.3c-0.5-0.2-0.9-0.5-1.3-0.8c-0.8-0.6-1.6-1.2-2.3-1.9c-0.8-0.8-1.6-1.6-2.3-2.4
		c-0.6-0.7-1.2-1.4-1.6-2.1c-0.2-0.3-0.5-0.8-0.5-1.1c-0.1-0.3-0.1-0.5,0.1-0.8c0.1-0.2,0.3-0.3,0.4-0.4c0.4-0.3,0.9-0.4,1.4-0.6
		c0.9-0.4,1.9-0.6,2.8-0.9c0.8-0.2,1.5-0.4,2.3-0.6c0.9-0.3,1.8-0.5,2.8-0.7c2.3-0.6,4.7-1.2,7-1.9c2.2-0.6,4.4-1.2,6.6-1.7
		c2.2-0.6,4.4-1.1,6.6-1.7c1.4-0.3,2.8-0.7,4.3-1c0.9-0.2,1.9-0.4,2.9-0.6c2.2-0.5,4.4-1,6.6-1.4c2.3-0.4,4.6-0.8,6.9-1.2
		c0.8-0.2,1.7-0.3,2.5-0.5c0.2,0,0.4,0.1,0.5,0.2c0.3,0.1,0.5,0.3,0.8,0.5c0.9,0.7,1.8,1.4,2.5,2.3c0.5,0.6,1.1,1.2,1.5,1.9
		c0.1,0.2,0.7,1,0.2,1.1c-2.2,0.4-4.5,0.9-6.7,1.4c-2.1,0.5-4.2,1-6.3,1.6c-2.1,0.6-4.2,1.2-6.4,1.9c-2.1,0.6-4.3,1.3-6.4,2
		c-2.2,0.7-4.3,1.4-6.5,2.1c-2.2,0.7-4.4,1.4-6.6,2.1c-1.4,0.4-2.7,0.9-4.1,1.3c-1,0.3-2.1,0.7-3.1,1.1c-0.2,0.1-0.4,0.1-0.6,0.2
		c-0.6,0.3-1.3,0.5-1.9,0.8c-0.3,0.1-0.5,0.3-0.8,0.5c0,0-0.1,0-0.1,0.1c0,0.1,0.1,0.1,0.1,0.2c0.2,0.3,0.4,0.7,0.5,1.1
		c0.1,0.2,0.1,0.7-0.3,0.7C45.4,129,45.1,128.9,44.8,128.8z"/>
	<path d="M118.4,148.2c-1.5-1.1-2.9-2.4-4.2-3.7c-1.4-1.5-2.6-3.1-3.7-4.9c-0.8-1.2-1.4-2.4-2.1-3.7c-0.8-1.5-1.6-2.9-2.4-4.4
		c-0.8-1.5-1.5-3.1-2.3-4.6c-0.7-1.4-1.3-2.9-2-4.3c-0.3-0.6-0.5-1.3-0.8-1.9c-0.3-0.7-0.6-1.5-0.9-2.2c-0.3-0.8-0.6-1.6-0.9-2.5
		c-0.1-0.3-0.2-0.6-0.3-0.9c-0.2-0.5-0.3-1.1-0.5-1.6c-0.2-0.8-0.4-1.5-0.6-2.3c-0.4-1.6-0.7-3.2-0.9-4.9c-0.1-1.1-0.1-2.3,0-3.4
		c0.1-1.2,0.5-2.4,1-3.5c0.4-1,1-2,1.6-3c0.6-1,1.3-1.9,2.1-2.7c0.8-0.9,1.7-1.7,2.7-2.5l0-0.1c0.1-1.5,0.2-2.9,0.3-4.4
		c0.2-2.2,0.4-4.4,0.7-6.6c0.1-1.3,0.3-2.6,0.5-3.8l0.1-0.7c-1.4,0.1-2.8,0.3-4.2,0.5c-0.9,0.2-1.9,0.3-2.8,0.5
		c-0.8,0.1-1.7,0.3-2.5,0.5c-1.6,0.3-3.3,0.7-4.9,1.1c-3.3,0.8-6.7,1.5-10,2.3c-3.1,0.7-6.2,1.4-9.3,2c-3.2,0.7-6.5,1.4-9.7,2.3
		c-3.3,0.9-6.6,1.8-9.9,2.7c-2.1,0.6-4.1,1.2-6.2,1.8c-1,0.3-1.9,0.6-2.9,0.9c-1.5,0.5-3.1,1-4.6,1.5c-0.5,0.2-0.9,0.4-1.3,0.6
		c0.6,0.6,1.1,1.3,1.5,2.1c0.1,0.2,0.2,0.4,0.2,0.7c0,0.3-0.3,0.3-0.5,0.2c-1-0.4-2.1-0.8-3.1-1.2c-0.9-0.4-1.7-1.1-2.5-1.7
		c-1.1-1-2.2-2-3.1-3.2c-0.4-0.5-0.7-1-1-1.5c-0.1-0.3-0.2-0.5-0.3-0.8c0-0.1,0-0.1,0-0.2c0-0.1,0.1-0.2,0.1-0.3
		c0.1-0.1,0.2-0.2,0.3-0.2c0.1-0.1,0.3-0.2,0.4-0.2c0.5-0.3,1-0.4,1.5-0.6s1-0.4,1.5-0.5c0.6-0.2,1.3-0.4,1.9-0.6l3.2-0.9
		c1.5-0.4,3.1-0.8,4.6-1.1c1.5-0.4,3-0.7,4.5-1c3.5-0.8,6.9-1.5,10.4-2.2c3.3-0.7,6.7-1.3,10-1.9c3.2-0.6,6.4-1.2,9.6-1.8
		c3.4-0.6,6.8-1.3,10.2-2.1c3.1-0.7,6.2-1.3,9.3-1.9c0.6-0.1,1.3-0.3,1.9-0.4c0.8-0.2,1.6-0.3,2.4-0.5c0.7-0.2,1.4-0.3,2.1-0.5
		l1.2-0.3c0.3-0.1,0.6-0.2,0.8-0.3c0.2-0.1,0.3-0.1,0.5-0.2c0.2-0.1,0.5-0.3,0.7-0.3c0.5-0.1,1.1,0.2,1.6,0.5
		c0.4,0.3,0.8,0.6,1.2,0.9c0.9,0.7,1.7,1.5,2.5,2.4c0.5,0.6,1,1.2,1.5,1.8c0.2,0.3,0.5,0.8,0.7,1.1c0.2,0.5,0.3,1,0.4,1.5
		c0.1,1.2,0,2.4-0.2,3.5c-0.1,0.8-0.2,1.6-0.3,2.4c-0.1,1-0.3,1.9-0.4,2.9c1.6-0.8,3.2-1.5,4.8-2.1c1-0.4,2.1-0.7,3.1-1.1
		c1.7-0.6,3.4-1,5.1-1.4c2.3-0.5,4.5-0.8,6.8-1.2c0.3-0.1,0.7-0.1,1-0.1l1.8-0.2c0.8-0.1,1.6-0.2,2.4-0.2c1.7-0.2,3.5-0.3,5.2-0.1
		c0.5,0,1.1,0.1,1.6,0.2c0.5,0.1,1,0.2,1.4,0.4c0.6,0.2,1.2,0.6,1.8,1c0.4,0.3,0.9,0.6,1.2,1c0.5,0.5,1,0.9,1.5,1.4
		c1.3,1.3,2.5,2.7,3.3,4.3c0.2,0.5,0.4,1,0.5,1.5c0.1,0.2,0.1,0.5,0.1,0.8c0,0.3,0,0.7-0.1,1c-0.1,0.5-0.3,1-0.5,1.4
		c-0.2,0.5-0.4,1-0.7,1.5c-0.5,1-1.2,2-2,2.9c-1.4,1.8-3.2,3.4-4.9,4.9c-0.7,0.6-1.5,1.1-2.2,1.7c-0.6,0.4-1.1,0.9-1.7,1.3
		c-0.9,0.6-1.7,1.2-2.6,1.8c-0.5,0.4-1.1,0.7-1.6,1c-0.9,0.5-1.7,1.1-2.6,1.6c-1.5,0.9-3.1,1.8-4.6,2.8c-1.4,0.8-2.8,1.7-4.2,2.5
		c-1,0.6-1.9,1.2-2.9,1.8c-1.2,0.7-2.3,1.4-3.5,2.2c-1.2,0.8-2.4,1.5-3.5,2.3c-0.7,0.5-1.4,1-2,1.5c-0.4,0.3-0.7,0.6-1.1,0.9
		c-0.4,0.3-0.7,0.6-1,1c-0.2,0.2-0.4,0.4-0.5,0.6c1.3,0.1,2.7,0.1,4,0.2c1.2,0,2.4,0,3.6,0c0.8,0,1.6,0,2.5-0.1
		c2-0.1,4.1-0.3,6.1-0.4c3.5-0.2,7-0.6,10.5-0.9c3.2-0.3,6.4-0.5,9.6-0.8c1.8-0.1,3.6-0.3,5.4-0.4c1.4-0.1,2.7-0.2,4.1-0.3
		c1.9-0.1,3.9-0.2,5.8-0.3c1.8-0.1,3.6-0.1,5.5-0.2c3.1-0.1,6.2-0.2,9.4-0.3c0.8,0,1.6-0.1,2.4-0.1c0.2,0,0.4,0.1,0.6,0.2
		c0.3,0.2,0.6,0.4,0.9,0.6c1.1,0.8,2,1.7,2.9,2.6c0.6,0.7,1.3,1.4,1.7,2.2c0.2,0.2,0.3,0.5,0.4,0.8c0,0.2,0.1,0.5-0.2,0.5
		c-1.9-0.1-3.7-0.1-5.6-0.1c-0.8,0-1.6,0-2.4,0l-3.3,0.1c-1.7,0-3.3,0.2-5,0.3c-1.4,0.1-2.9,0.3-4.3,0.4c-1.4,0.1-2.8,0.3-4.3,0.5
		c-2.1,0.3-4.2,0.6-6.4,0.8c-3.1,0.4-6.1,0.9-9.2,1.3c-1.6,0.2-3.3,0.5-4.9,0.7c-1.3,0.2-2.7,0.4-4,0.6c-2.1,0.2-4.2,0.4-6.3,0.7
		c-0.7,0.1-1.4,0.2-2.1,0.2c-2.4,0.1-4.8,0.2-7.3,0.1c-2.4-0.1-4.7-0.3-7.1-0.9c-0.5-0.1-1-0.3-1.5-0.5c-0.4-0.2-0.9-0.4-1.3-0.6
		c0.2,0.7,0.5,1.4,0.8,2.1c0.4,0.9,0.8,1.9,1.2,2.8c0.4,0.8,0.8,1.7,1.2,2.5c0.9,1.7,1.8,3.4,2.7,5.1c0.3,0.4,0.5,0.9,0.8,1.3
		c0.5,0.9,1.1,1.8,1.5,2.8c0.1,0.2,0.5,1.1-0.1,1.2h0C119.8,149.2,119,148.6,118.4,148.2z M105,118.5c-0.6-3.4-0.9-6.8-1.1-10.2
		c0,0.1-0.1,0.2-0.1,0.4c-0.1,0.6-0.2,1.3-0.2,1.9c-0.1,1.2,0,2.3,0.2,3.4C104.1,115.6,104.6,117,105,118.5L105,118.5z M110.2,105.5
		c-0.1,0.5-0.1,1-0.1,1.5c-0.1,1.2-0.1,2.3-0.2,3.5c-0.1,1.8-0.1,3.7-0.1,5.5c3-1.9,6-3.9,9-5.8c2.6-1.7,5.2-3.3,7.8-5
		c1.4-0.9,2.8-1.8,4.1-2.7c0.9-0.6,1.7-1.2,2.6-1.8c0.6-0.4,1.2-0.9,1.8-1.4c0.6-0.5,1.1-0.9,1.7-1.4l2.7-2.3
		c1.5-1.3,2.9-2.7,4.1-4.2c0.7-0.9,1.4-1.9,2.1-2.9c0.7-1,1.2-2.1,1.7-3.2c0,0,0-0.1,0-0.1c-1.8-0.1-3.6,0.1-5.4,0.3
		c-1.2,0.1-2.4,0.3-3.6,0.5c-1.2,0.2-2.4,0.5-3.6,0.7c-1,0.2-1.9,0.4-2.9,0.7c-1.6,0.4-3.2,0.9-4.7,1.5c-1.2,0.5-2.5,1-3.7,1.5
		c-0.8,0.3-1.6,0.7-2.4,1.1c-0.8,0.4-1.7,0.9-2.5,1.3c-0.8,0.5-1.6,1-2.4,1.6c-0.7,0.5-1.5,1-2.2,1.6c-1,0.7-2,1.5-2.9,2.3
		C110.8,100.6,110.5,103,110.2,105.5L110.2,105.5z"/>
	<path d="M182,140.4c-0.7-0.3-1.4-0.9-2-1.4c-0.9-0.7-1.7-1.5-2.5-2.3c-0.6-0.6-1.2-1.2-1.8-1.9c-0.5-0.5-0.9-1.1-1.3-1.7
		c-0.3-0.4-0.6-0.8-0.8-1.3c-0.3-0.6-0.6-1.1-0.7-1.7c-0.1-0.4-0.3-0.9-0.4-1.3c-0.3-0.9-0.5-1.9-0.6-2.8l0,0.1
		c-0.1-0.7-0.2-1.3-0.3-2c-0.2-1.2-0.4-2.4-0.5-3.6c-0.1-0.7-0.2-1.5-0.2-2.2c-0.1-0.6-0.1-1.2-0.1-1.8c-0.1-1.2-0.1-2.4-0.2-3.6
		c0-1,0-1.9-0.1-2.9c0-0.5,0-1,0-1.5c0-1.5,0-3,0.1-4.5c0-1,0-2,0.1-3c0.1-2.7,0.2-5.4,0.3-8.1c0.1-2.8,0.3-5.6,0.4-8.4
		c0.1-1.5,0.1-3,0.2-4.5c0-0.1,0-0.1,0-0.2c-0.2-0.3-0.4-0.7-0.4-1c0-1,0-2.1,0.1-3.1c0-1,0.1-2,0.1-3c0-0.5,0.7-0.1,0.9-0.1
		c0.7,0.3,1.4,0.9,2,1.4c0.8,0.7,1.6,1.5,2.3,2.3c0.3,0.4,0.6,0.7,0.9,1.1c0.2,0.3,0.4,0.6,0.6,0.9c0.1,0.3,0.2,0.5,0.3,0.8
		c0.1,0.3,0.1,0.5,0.1,0.8c0,0.5,0,1,0,1.4c0,0.2,0,0.4,0,0.7c0,0.9,0,1.8-0.1,2.7c0,0.5,0,1,0,1.6c0,0.5-0.1,1.1-0.1,1.6
		c-0.2,2.7-0.4,5.5-0.6,8.2c-0.2,2.7-0.4,5.4-0.6,8.1c-0.1,1.1-0.2,2.2-0.2,3.2c-0.1,1.7-0.1,3.3-0.2,5c0,0.5,0,0.9-0.1,1.4
		c0,0.2,0,0.3,0,0.5c0,0.4,0,0.8,0,1.1c0,0.9,0,1.9,0,2.8c0,0.4,0,0.8,0,1.2c0.1,1.3,0.2,2.7,0.3,4c0,0.1,0,0.1,0,0.2
		c0,0,0-0.1,0-0.1l0,0c0,0,0,0,0-0.1c0,0,0,0,0,0c0,0,0,0,0,0c0,0.1,0,0.2,0,0.3c0,0,0,0.1,0,0.1c0,0,0,0,0,0c0,0,0,0,0,0l0,0
		c0,0,0,0.1,0,0.1c0,0,0-0.1,0-0.1c0.1,0.4,0.1,0.8,0.2,1.2c0,0,0,0,0,0l0,0.1c0,0,0,0.1,0,0.1c0,0,0-0.1,0-0.1l0,0.3
		c0,0.1,0,0.2,0,0.3v0c0,0,0-0.1,0-0.1c0,0,0,0.1,0,0.1l0,0l0,0.1c0,0,0,0,0,0c0,0,0,0,0,0l0,0l0,0.3c0-0.1,0-0.2,0-0.2
		c0,0.1,0,0.1,0,0.2c0,0,0,0,0,0c0,0,0,0.1,0,0.1v0c0,0,0,0,0,0.1c0,0.1,0,0.1,0,0.2c0-0.1,0-0.1,0-0.2c0,0.1,0,0.1,0,0.2
		c0,0,0,0,0,0v0c0,0,0,0,0,0c0,0,0,0,0,0c0,0,0,0,0,0c0.1,0.6,0.3,1.2,0.4,1.8c0.1,0.5,0.2,0.9,0.3,1.4c0.1,0.4,0.2,0.8,0.3,1.2
		c0.1,0.2,0.1,0.5,0.2,0.7c0.2,0.5,0.4,1,0.6,1.5c0.2,0.5,0.4,0.9,0.7,1.4c0.2,0.3,0.4,0.7,0.6,1c0.2,0.3,0.5,0.5,0.7,0.8
		c0.4,0.5,0.8,1,1.2,1.6l0.5,0.7c0.2,0.3,0.4,0.7,0.5,1.1c0.1,0.2,0.1,0.4,0,0.6c-0.1,0.1-0.2,0.1-0.3,0.1
		C182.5,140.7,182.1,140.5,182,140.4z"/>
	<path d="M213.8,132.1c-2.8-0.3-5.5-0.8-8.2-1.4c-2.7-0.7-5.3-1.6-7.8-2.8c-3.1-1.5-6-3.6-8.5-6.1c-1.4-1.4-2.8-3-3.8-4.7
		c-0.7-1.2-1.2-2.4-1.3-3.8c0-0.6,0-1.2,0.1-1.7c0.1-0.6,0.2-1.3,0.4-1.9c0.2-0.6,0.4-1.2,0.7-1.7c0.3-0.6,0.6-1.2,0.9-1.9
		c0.6-1.2,1.3-2.3,2-3.4c0.7-1.1,1.5-2.2,2.3-3.3c0.8-1.1,1.7-2.2,2.5-3.2c0.9-1,1.8-2.1,2.7-3.1c0.9-1,1.9-2,2.8-3
		c0.4-0.4,0.7-0.7,1.1-1.1c1.7-1.6,3.4-3.2,5.1-4.9c0.3-0.3,0.7-0.6,1-0.9l2.9-2.5c0.8-0.7,1.6-1.4,2.4-2.1c0.4-0.4,0.9-0.7,1.3-1.1
		c0.9-0.7,1.9-1.5,2.8-2.2c0.6-0.5,1.2-1,1.8-1.5c0.9-0.7,1.9-1.4,2.8-2c0.5-0.3,1-0.6,1.5-0.9c0.5-0.3,1-0.6,1.6-0.9
		c0.5-0.2,1-0.4,1.5-0.5c0.6-0.2,1.2-0.1,1.7,0.1c0.8,0.4,1.4,0.9,2.1,1.5c0.9,0.8,1.7,1.6,2.5,2.5c0.6,0.7,1.2,1.4,1.6,2.2
		c0.1,0.2,0.2,0.5,0.2,0.7c0,0.1,0,0.2,0,0.3c0,0.5-0.7,0.2-0.9,0.1c-0.3-0.2-0.6-0.4-0.9-0.6c-0.1,0-0.1-0.1-0.2-0.1
		c-0.4,0.1-0.8,0.2-1.1,0.3c-1.2,0.5-2.3,1.1-3.4,1.7c-0.6,0.3-1.1,0.7-1.6,1c-0.5,0.3-1,0.6-1.5,1c-0.7,0.5-1.5,1-2.2,1.6
		c-1.4,1-2.8,2-4.2,3c-1.8,1.4-3.7,2.8-5.5,4.3c-0.4,0.3-0.8,0.7-1.2,1c-1,0.9-2.1,1.7-3.1,2.6c-0.6,0.5-1.3,1.1-1.9,1.6
		c-0.3,0.3-0.7,0.6-1,0.9c-0.5,0.4-1,0.9-1.4,1.3c-1,0.9-1.9,1.8-2.8,2.7c-1.8,1.9-3.5,3.8-5.1,5.9c-1.5,2.1-2.8,4.3-3.7,6.6
		c-0.4,1-0.7,2-0.9,3.1c-0.1,0.5-0.1,1.1-0.1,1.6c0,0.5,0,1.1,0.1,1.6c0.1,0.5,0.2,0.9,0.4,1.4c0.1,0.2,0.2,0.4,0.3,0.5
		c0.4,0.2,0.8,0.5,1.2,0.7c0.8,0.5,1.7,0.9,2.6,1.2c3.3,1.3,6.7,2.2,10.1,2.7c5.5,0.8,11,1,16.5,0.8c2.8-0.1,5.7-0.3,8.5-0.7
		c1.7-0.2,3.5-0.4,5.2-0.7c2.4-0.4,4.9-0.8,7.3-1.3c0.7-0.1,1.4-0.2,2.1-0.4c0.2,0,0.3-0.1,0.5-0.1l1.5-0.3c2.2-0.5,4.4-1,6.6-1.5
		c0.2,0,0.3-0.1,0.5-0.1l1.5-0.5c1.3-0.4,2.5-0.8,3.8-1.2c0.3-0.1,0.6-0.2,0.9-0.3c1.5-0.6,3.1-1.2,4.6-1.9c0.7-0.3,1.4-0.6,2.1-0.9
		c1.2-0.5,2.4-1,3.6-1.6c0.1-0.1,0.3-0.1,0.4,0c0.2,0.1,0.5,0.2,0.7,0.3c0.9,0.5,1.7,1.3,2.4,2c0.7,0.7,1.5,1.5,2,2.4
		c0.1,0.2,0.2,0.4,0.3,0.7l0,0.2c0,0.1-0.1,0.2-0.2,0.2c-1.9,0.7-3.9,1.4-5.8,2.1c-0.9,0.3-1.8,0.7-2.7,1.1
		c-0.8,0.3-1.5,0.6-2.3,0.9c-2.1,0.7-4.1,1.4-6.2,2.1c-0.5,0.2-0.9,0.3-1.4,0.4c-1.2,0.3-2.5,0.7-3.7,1c-1.4,0.4-2.8,0.8-4.3,1.1
		c-2.4,0.5-4.9,1-7.3,1.5c-0.9,0.2-1.8,0.4-2.7,0.5c-2.8,0.5-5.5,0.9-8.3,1.2c-3.1,0.3-6.1,0.5-9.2,0.5
		C218.7,132.4,216.2,132.3,213.8,132.1z"/>
	<path d="M54.9,214.6c-0.3-0.1-0.6-0.3-0.9-0.4c-0.6-0.4-1.2-0.9-1.8-1.4c-1-0.8-1.8-1.7-2.7-2.7c-0.3-0.4-0.7-0.8-1-1.3
		c-0.1-0.2-0.2-0.4-0.4-0.6c-0.2-0.3-0.3-0.6-0.4-0.9c-0.5-2.4-0.9-4.7-1.4-7.1c-0.2-1.2-0.4-2.3-0.6-3.5c-0.2-1.2-0.3-2.4-0.4-3.5
		c-0.1-0.5-0.1-1-0.2-1.5c0-0.4,0-0.8-0.1-1.2c-0.1-1.4-0.1-2.7-0.2-4.1c-0.1-1.1,0-2.2-0.1-3.3c0-0.9,0-1.9,0-2.8
		c0-1.4,0-2.8,0-4.2c0-1.1,0.1-2.2,0.1-3.3c0-1,0.1-2,0.1-2.9c0.1-1.7,0.2-3.4,0.4-5c0.1-0.7,0.2-1.3,0.3-2c0.1-0.3,0.2-0.7,0.3-1
		c0.1-0.3,0.3-0.5,0.7-0.6c0.3,0,0.6,0.1,0.9,0.3c0.4,0.2,0.9,0.5,1.3,0.8c1.5,1,2.8,2.3,4.1,3.7c0.9,0.9,1.7,1.9,2.4,3.1
		c0.1,0.2,1.1,1.7,0.3,1.8c-0.3,0.2-0.5,0.5-0.6,0.8c-0.2,0.7-0.4,1.4-0.5,2.1c-0.1,0.6-0.2,1.2-0.3,1.8c-0.1,0.5-0.1,1.1-0.2,1.6
		c-0.1,1-0.3,2-0.4,3c-0.1,1.2-0.3,2.4-0.4,3.6c0,0.4-0.1,0.8-0.1,1.2c0,0.8-0.1,1.5-0.1,2.3c-0.1,2.1-0.2,4.3-0.2,6.4
		c0,1,0,2,0,3.1c0,0.9,0,1.8,0,2.7c0.1,0.8,0.1,1.6,0.2,2.4c0,0.5,0,0.9,0.1,1.4c0,0.1,0,0.2,0,0.2c0-0.1,0-0.1,0-0.2l0,0
		c0,0,0-0.1,0-0.1c0,0,0,0,0,0c0,0,0,0,0,0v0c0,0,0,0,0,0v0l0,0.1l0,0c0,0,0,0,0,0.1c0,0.1,0,0.3,0.1,0.4c0-0.1,0-0.2,0-0.3l0.1,0.5
		l0-0.1c0,0.1,0,0.2,0.1,0.3l0-0.1l0,0.2c0,0,0,0.1,0,0.1c0,0,0,0,0-0.1l0.1,0.7c0,0,0-0.1,0-0.1c0,0.3,0.1,0.5,0.1,0.8
		c0-0.1,0-0.2,0-0.3c0,0.2,0.1,0.4,0.1,0.6l0,0.3l0,0.2c0,0.1,0,0.1,0,0.2c0,0,0,0,0,0l0,0c0,0,0,0,0,0l0-0.1l0,0.2l0,0
		c0,0,0-0.1,0-0.1c0,0,0,0.1,0,0.1c0,0,0,0,0,0.1c0.1,0.5,0.2,1.1,0.3,1.6c0.1,0.5,0.2,0.9,0.3,1.4c0.3,1.3,0.6,2.5,0.9,3.8l0.1,0.6
		c0.1,0.1,0.1,0.4,0,0.5c-0.1,0.1-0.2,0.1-0.3,0.1C55,214.7,55,214.7,54.9,214.6z"/>
	<path d="M72.5,211.9c-0.8,0-1.6-0.1-2.5-0.2c-0.8-0.1-1.5-0.1-2.3-0.3c-0.7-0.1-1.3-0.3-2-0.6c-0.8-0.3-1.6-0.7-2.2-1.2
		c-1.3-1-2.5-2.1-3.5-3.3c-0.9-1-1.6-2-2.1-3.2c-0.3-0.8-0.5-1.6-0.6-2.4c-0.1-0.8,0.1-1.6,0.1-2.4c0.1-1.5,0.1-2.9,0.3-4.3
		c0.1-0.5,0.8-0.2,1-0.1c0.4,0.2,0.7,0.4,1.1,0.7c0.7,0.5,1.4,1.1,2,1.7c1.1,1,2.2,2.2,3.1,3.4c0.2,0.3,0.5,0.7,0.7,1.1l0.2,0.4
		c0.1,0.2,0.1,0.4,0,0.5c-0.1,0.2-0.2,0.4-0.3,0.6c-0.2,0.7-0.4,1.3-0.6,2c-0.1,0.5-0.3,1-0.4,1.4c-0.1,0.2-0.1,0.5-0.2,0.7
		c0.5,0.1,0.9,0.2,1.4,0.3c3.5,0.5,7,0.4,10.5,0.2c0.7,0,1.4-0.1,2.2-0.2c0.6-0.1,1.3-0.1,1.9-0.2c1.7-0.2,3.4-0.4,5.1-0.6
		c0.7-0.1,1.3-0.1,2-0.2c3-0.5,5.9-1,8.9-1.5c0.6-0.1,1.2-0.2,1.7-0.3l4.1-0.9c2-0.4,4-0.9,6-1.3c1.2-0.3,2.3-0.6,3.5-0.9
		c1.4-0.4,2.7-0.7,4.1-1.1c1.3-0.4,2.7-0.8,4-1.3c1.3-0.4,2.5-0.8,3.7-1.3c1.3-0.5,2.6-1.1,3.9-1.7s2.6-1.2,3.8-1.9
		c1.2-0.7,2.2-1.6,3.2-2.5c0.9-0.8,1.8-1.8,2.3-3c0.3-0.8,0.3-1.7,0.2-2.5c-0.1-0.3-0.1-0.6-0.2-0.8c0,0,0-0.1-0.1-0.1
		c-0.1-0.1-0.3-0.3-0.4-0.4c-0.1-0.1-0.2-0.1-0.2-0.2c-0.2-0.1-0.3-0.3-0.5-0.4c-0.6-0.5-1.3-0.9-1.9-1.3c-1-0.7-2.1-1.3-3.1-1.9
		c-2.6-1.4-5.3-2.7-8-3.8c-6.7-2.7-13.8-4.5-21-5.7c-3.4-0.5-6.8-0.9-10.2-1.2c-2-0.1-4-0.3-5.9-0.3c-3.1,0-6.1,0-9.2,0
		c-0.2,0-0.3,0-0.5,0c-0.4,0-0.8,0-1.3,0c-1.2,0.1-2.5,0.1-3.7,0.2l-5,0.3c-0.7,0-1.3,0.1-2,0.1c-2.8,0.2-5.7,0.4-8.5,0.6
		c-2.2,0.2-4.5,0.3-6.7,0.4l-1.8,0.1c0.1,0.2,0.2,0.4,0.3,0.6c0.2,0.3,0.3,0.6,0.3,0.9c-0.1,0.4-0.4,0.4-0.8,0.3
		c-2.1-0.4-4.3-0.8-6.4-1.2c-1.4-0.3-2.8-0.6-4.2-0.8c-0.7-0.1-1.3-0.2-1.9-0.3c-0.4-0.1-0.8-0.3-1.1-0.5c-0.5-0.3-1-0.7-1.4-1
		c-1.2-0.9-2.3-2-3.3-3.1c-0.9-1-1.8-2-2.4-3.1c-0.2-0.3-0.4-0.7-0.5-1.1c0-0.1,0-0.3-0.1-0.4c0-0.2,0.1-0.3,0.3-0.3
		c2.2,0.3,4.4,0.5,6.6,0.6c1.7,0.1,3.3,0.1,5,0.2c0.6,0,1.3,0,1.9,0H39c1.8,0,3.5,0,5.3,0c2.3,0,4.5,0,6.8,0c2.1,0,4.2,0,6.3,0
		c3.2,0.1,6.4,0.1,9.5,0.2c0.6,0,1.1,0.1,1.7,0.1c1.7,0.1,3.3,0.2,5,0.4c1.6,0.1,3.3,0.2,4.9,0.4c1.8,0.1,3.6,0.3,5.4,0.6
		c7.3,0.9,14.6,2.4,21.7,4.4c6.9,2,13.6,4.6,20,8c1.6,0.8,3.1,1.7,4.6,2.7c1.5,0.9,2.9,1.9,4.3,3c0.7,0.6,1.4,1.2,2.1,1.8
		c0.8,0.8,1.6,1.6,2.4,2.5c0.7,0.8,1.3,1.6,1.7,2.6c0.3,0.8,0.6,1.5,0.7,2.4c0.1,0.7,0.1,1.4,0,2.1c-0.1,0.3-0.2,0.6-0.3,1
		c-0.2,0.4-0.4,0.8-0.6,1.1c-0.4,0.6-0.9,1.2-1.4,1.8c-0.5,0.6-1.1,1.1-1.7,1.6c-1.2,1-2.6,1.8-4,2.5c-1.5,0.8-3,1.5-4.5,2.1
		c-3.2,1.3-6.5,2.3-9.9,3.1c-1.7,0.4-3.5,0.8-5.2,1.2c-0.4,0.1-0.8,0.2-1.3,0.3l-9.2,1.7c-0.5,0.1-1.1,0.2-1.6,0.3
		c-1.6,0.2-3.1,0.4-4.7,0.6c-2.1,0.3-4.3,0.6-6.4,0.8c-2.8,0.2-5.6,0.5-8.3,0.7c-1.6,0.1-3.2,0.2-4.8,0.2c-0.5,0-1.1,0-1.6,0
		c-0.3,0-0.6,0-0.9,0c-0.2,0-0.5,0-0.7,0C73.7,212,73.1,212,72.5,211.9z"/>
	<path d="M147.9,212.1c-0.5-0.2-0.9-0.4-1.3-0.6c-0.6-0.4-1.2-0.8-1.7-1.2c-1-0.8-2-1.7-3-2.7c-1.2-1.2-2.4-2.5-3.3-3.9
		c-0.4-0.5-0.7-1-0.9-1.5l-0.2-0.6c-0.1-0.3-0.1-0.5,0-0.7c0.7-0.3,1.3-0.5,2-0.8c0.3-0.1,0.7-0.3,1-0.4l-0.3,0.1
		c0.5-0.2,1-0.4,1.5-0.6c0.2-0.1,0.4-0.2,0.6-0.3c0.2-0.1,0.4-0.3,0.5-0.5c0.5-0.7,0.9-1.5,1.2-2.4c0.3-0.7,0.5-1.4,0.7-2.1
		c0.3-0.8,0.5-1.6,0.8-2.4c0.6-1.7,1.1-3.5,1.5-5.2c0.7-2.5,1.3-5,2-7.4c0.9-3,1.7-6,2.6-9c0.5-1.7,1-3.3,1.5-5
		c0.6-1.8,1.1-3.5,1.8-5.2c0.6-1.7,1.3-3.3,2.1-4.9c0.8-1.6,1.7-3.1,2.7-4.5c0.5-0.7,1-1.4,1.7-2c0.6-0.6,1.2-1.1,1.9-1.5
		c0.7-0.4,1.5-0.6,2.3-0.7c1.1-0.1,2,0.4,2.9,0.9c0.6,0.4,1.2,0.8,1.8,1.3c0.9,0.7,1.7,1.4,2.4,2.2c1.3,1.3,2.4,2.7,3.4,4.2
		c0.5,0.8,1,1.6,1.4,2.4c0.4,0.8,0.8,1.5,1.1,2.3c0.7,1.7,1.3,3.5,1.8,5.3c0.5,1.8,0.9,3.6,1.3,5.4c0.1,0.6,0.2,1.2,0.3,1.7
		c0.5,2.5,0.9,5,1.4,7.6c0.3,1.5,0.5,3.1,0.8,4.6c0.2,1.2,0.5,2.3,0.7,3.5c0.5,2.4,1,4.8,1.7,7.1c0.2,0.6,0.3,1.1,0.5,1.7
		c0.2,0.6,0.4,1.2,0.6,1.8c0.3,1,0.7,2,1.1,3c0.3,0.8,0.6,1.5,1,2.2c0.1,0.2,0.2,0.5,0.2,0.7c-0.1,0.3-0.3,0.3-0.6,0.2
		c-0.3-0.1-0.6-0.3-0.9-0.5c-0.7-0.4-1.3-0.9-1.9-1.4c-1.2-1-2.4-2.2-3.4-3.5c-0.3-0.4-0.6-0.8-0.9-1.2l-0.3-0.5
		c-0.1-0.2-0.2-0.5-0.2-0.7c-0.1-0.8-0.2-1.6-0.3-2.5c-0.2-1-0.4-2-0.6-3c-0.3-1.1-0.5-2.3-0.8-3.4c-0.3-1.2-0.6-2.4-0.9-3.7
		c-0.3-1.6-0.7-3.1-1-4.7c-0.5-2.2-0.9-4.5-1.3-6.7c-0.6-3.1-1.2-6.3-2-9.4c-0.7-3-1.5-6.1-2.7-8.9c-0.3-0.6-0.5-1.2-0.8-1.8
		c-0.6,0-1.1,0.1-1.6,0.3c-0.7,0.3-1.2,0.8-1.7,1.3c-0.6,0.6-1.1,1.2-1.5,1.9c-0.9,1.4-1.6,2.9-2.2,4.5c-1.3,3.5-2.2,7.1-3,10.8
		c-0.4,2.1-0.8,4.1-1.2,6.2c-0.6,3.3-1.3,6.5-1.9,9.8c-0.5,2.3-0.9,4.6-1.4,7c-0.4,1.8-0.8,3.7-1.2,5.5c-0.2,0.9-0.5,1.8-0.7,2.7
		c-0.2,0.8-0.4,1.6-0.6,2.4c-0.4,1.6-0.9,3.1-1.8,4.4c-0.2,0.3-0.5,0.5-0.7,0.8c-0.3,0.3-0.7,0.6-1,0.9c-0.3,0.3-0.7,0.5-1,0.7
		c-0.4,0.2-0.7,0.4-1.1,0.7c-0.1,0.1-0.3,0.1-0.4,0.1C148.2,212.2,148.1,212.1,147.9,212.1z"/>
	<path d="M236.1,191.6c-0.9,0-1.8-0.2-2.7-0.3c-1-0.1-2-0.3-3-0.5c-1-0.2-2-0.4-3-0.8c-0.7-0.3-1.4-0.5-2-0.8
		c-0.8-0.3-1.5-0.7-2.2-1.2c-0.7-0.4-1.4-0.9-2-1.4c-0.9-0.7-1.8-1.4-2.7-2.1c-1.6-1.4-3.2-2.9-4.7-4.4c-1-1.1-2-2.2-2.9-3.4
		c-0.7-0.9-1.4-1.8-2.1-2.7c-1.4-1.8-2.6-3.7-3.6-5.7c-0.1-0.3-0.2-0.5-0.4-0.8c-0.3,0.3-0.7,0.6-1,0.9c-0.3,0.3-0.6,0.5-1,0.8
		c-0.4,0.3-0.8,0.6-1.2,0.9c-0.4,0.3-0.8,0.5-1.2,0.7c-0.3,0.2-0.7,0.4-1,0.6c-1.6,0.8-3.2,1.5-4.8,2.2c-1.6,0.7-3.3,1.3-4.9,1.9
		c-3.3,1.3-6.7,2.3-10.2,3.4c-1.7,0.5-3.4,0.9-5.1,1.4c-1.5,0.4-3,0.8-4.5,1.1c-3.4,0.8-6.9,1.6-10.3,2.4c-0.3,0.1-0.7,0.2-1,0.2
		c-0.6,0.1-1.1,0.3-1.7,0.5c-0.2,0.1-0.5,0.2-0.6,0.4c0,0.1,0,0.1-0.1,0.2c-0.2,0.1-0.3,0.1-0.5,0c-0.3-0.1-0.6-0.3-0.9-0.4
		c-0.6-0.4-1.2-0.9-1.8-1.4c-1-0.8-1.8-1.7-2.7-2.7c-0.4-0.4-0.7-0.8-1-1.3c-0.3-0.4-0.6-0.9-0.8-1.4c-0.1-0.3-0.1-0.5,0.2-0.7
		c0.1-0.1,0.2-0.1,0.3-0.2c0.1-0.1,0.3-0.1,0.4-0.2c0.5-0.1,0.9-0.2,1.4-0.3c0.5-0.1,1.1-0.2,1.6-0.3c0.8-0.1,1.6-0.2,2.4-0.3
		c1-0.1,2-0.3,3-0.4c0.9-0.1,1.8-0.3,2.7-0.4c3.5-0.6,6.9-1.4,10.3-2.2c1-0.3,2-0.5,3-0.9c0.5-0.2,1.1-0.3,1.6-0.5
		c0.6-0.2,1.2-0.4,1.8-0.6c0.8-0.3,1.6-0.6,2.4-1c0.8-0.3,1.5-0.7,2.2-1.1c1.5-0.7,3-1.4,4.6-2.1c1.6-0.7,3.3-1.4,4.9-2.2
		c0.7-0.3,1.4-0.7,2.1-1.1c0.8-0.5,1.6-0.9,2.4-1.4c0.7-0.5,1.4-1,2.1-1.6c0.7-0.5,1.3-1.1,1.9-1.7c0.2-0.1,0.3-0.3,0.4-0.5
		c0.1-0.1,0.2-0.2,0.2-0.3c0.2-0.2,0.4-0.4,0.7-0.4c0.2,0,0.6,0.1,0.8,0.2c0.4,0.2,0.7,0.4,1.1,0.6c1.2,0.8,2.3,1.8,3.2,2.9
		c1,1.1,2,2.3,2.7,3.7c0.4,0.7,0.6,1.5,0.8,2.2c0.1,0.4,0.3,0.8,0.4,1.2c0.2,0.6,0.4,1.2,0.6,1.9c0.1,0.3,0.2,0.5,0.3,0.8
		c0.1,0.3,0.3,0.7,0.4,1c0.4,0.9,0.9,1.8,1.4,2.7c0.2,0.4,0.5,0.8,0.7,1.2c0.1,0.2,0.3,0.4,0.4,0.6c0.4,0.5,0.8,1.1,1.3,1.6
		c0.3,0.4,0.6,0.7,0.9,1.1c0.1,0.1,0.3,0.2,0.4,0.3c0.1,0.1,0.2,0.1,0.3,0.2c0.3,0.1,0.6,0.3,0.8,0.4c1.1,0.4,2.2,0.7,3.3,0.9
		c1,0.2,2.1,0.3,3.1,0.4c0.9,0.1,1.9,0.2,2.8,0.3c0.3,0,0.6,0.1,0.9,0.3c0.5,0.2,0.9,0.5,1.3,0.8c1.5,1.1,2.9,2.4,4.2,3.8
		c0.9,1,1.8,2,2.5,3.1c0.2,0.3,0.4,0.7,0.5,1.1C236.4,191.2,236.5,191.6,236.1,191.6L236.1,191.6z"/>
	<path d="M228.9,231.1c-0.5-0.2-0.9-0.5-1.4-0.8c-0.9-0.6-1.7-1.4-2.5-2.1c-1.4-1.3-2.8-2.8-3.9-4.3c-0.3-0.4-0.6-0.9-0.8-1.4
		l-0.2-0.5c-0.1-0.2-0.1-0.5,0-0.7c0.3-0.7,0.8-1.3,1.2-1.9c0.4-0.6,0.8-1.3,1.2-2c0.8-1.5,1.4-3.1,2.1-4.7c0-0.1,0.1-0.2,0.1-0.2
		c0.4-1.1,0.8-2.2,1.2-3.3c0.6-1.5,1.1-3.1,1.7-4.6c0.3-0.8,0.6-1.7,0.9-2.6c0.3-1,0.6-1.9,0.9-2.9c1.1-3.5,2.1-7,3.1-10.4
		c0.9-3.2,1.9-6.3,2.9-9.5c0.6-1.8,1.1-3.6,1.8-5.5c0.7-2,1.4-3.9,2-5.9c0.1-0.2,0.1-0.3,0.2-0.5c0,0.1-0.1,0.1-0.1,0.2
		c0-0.1,0.1-0.2,0.1-0.3c0-0.1,0.1-0.1,0.1-0.2c0,0,0,0.1,0,0.1l0,0c0.9-2.3,1.8-4.7,2.7-7l0,0.1l0.1-0.3c0,0,0-0.1,0.1-0.1
		c0,0,0,0,0,0l0,0c0,0,0,0.1,0,0.1c0.3-0.7,0.5-1.3,0.8-2c0.5-1.2,1-2.4,1.5-3.6c0.6-1.5,1.2-3,1.8-4.4c0.6-1.4,1.2-2.8,1.8-4.2
		c0.3-0.6,0.6-1.2,0.8-1.8c0.2-0.4,0.4-0.8,0.6-1.2c0.2-0.5,0.4-1.1,0.8-1.4c0.2-0.1,0.4-0.1,0.7,0c0.4,0.1,0.8,0.3,1.2,0.6
		c1.2,0.7,2.3,1.7,3.3,2.6c1.2,1.1,2.3,2.3,3.4,3.6c0.4,0.5,0.8,1,1.1,1.5l0.4,0.6c0.2,0.3,0.3,0.6,0.3,0.9
		c-0.1,0.4-0.2,0.8-0.4,1.2c-0.1,0.2-0.2,0.5-0.3,0.7c-0.2,0.6-0.5,1.2-0.7,1.7c-0.2,0.1-0.4,0.1-0.7,0c-0.1,0-0.3-0.1-0.4-0.2
		c-0.4,0.6-0.8,1.3-1.1,1.9c-0.3,0.6-0.6,1.2-0.9,1.8c-0.5,1-1,2-1.5,3c-0.8,1.5-1.5,3.1-2.2,4.6c-0.6,1.3-1.2,2.5-1.8,3.8
		c-1.7,3.5-3.4,7-5.1,10.5c-0.7,1.4-1.3,2.8-1.9,4.2c-0.6,1.4-1.3,2.8-1.9,4.2c-0.7,1.7-1.4,3.4-2.1,5c-0.6,1.5-1.2,3-1.8,4.4
		c-0.6,1.6-1.2,3.2-1.8,4.8c-0.3,0.8-0.6,1.7-0.9,2.5c-0.2,0.7-0.5,1.4-0.7,2.2c-0.6,1.8-1.1,3.5-1.6,5.3c-0.2,0.8-0.5,1.5-0.7,2.3
		c-0.3,1.1-0.6,2.2-0.9,3.2c-0.2,0.9-0.4,1.7-0.6,2.6c-0.2,0.8-0.3,1.7-0.4,2.5c0,0.2,0,0.4,0,0.6c0,0.4-0.1,0.7-0.1,1.1
		c0,0.5,0,0.9,0,1.4c0,1,0,2,0.1,3c0,0.4,0,0.9,0.1,1.3c0,0.2-0.1,0.3-0.4,0.4C229.5,231.3,229.2,231.2,228.9,231.1z"/>
</g>
</svg>
